<?xml version="1.0" encoding="utf-8"?>
<!-- Generator: Adobe Illustrator 21.0.2, SVG Export Plug-In . SVG Version: 6.00 Build 0)  -->
<svg version="1.1" xmlns="http://www.w3.org/2000/svg" xmlns:xlink="http://www.w3.org/1999/xlink" x="0px" y="0px"
	 viewBox="0 0 1623 533" style="enable-background:new 0 0 1623 533;" xml:space="preserve">
<style type="text/css">
	.st0{display:none;}
	.st1{display:inline;}
	.st2{fill:#FFFFE9;}
	.st3{fill:#E06969;}
	.st4{fill:#FFFFFF;}
	.st5{fill:#1C1717;}
	.st6{fill:#EDF1F4;}
</style>
<g id="Layer_1" class="st0">
</g>
<g id="Layer_2">
	<g>
		<path class="st3" d="M131.1,177.1c0-8.3-2.8-14.8-8.3-19.3c-5.5-4.5-15.4-9.4-29.7-14.5c-29.9-9.4-52-19.5-66.4-30.3
			C12.2,102.3,5,86.7,5,66.4c0-19.8,8.6-35.8,25.7-48.1C47.9,6.1,69.7-0.1,96.1-0.1c26.2,0,47.7,6.7,64.4,20.2s24.8,30.8,24.3,52.1
			l-0.3,1h-53.3c0-9.4-3.2-17.1-9.6-23c-6.4-5.9-15.2-8.9-26.5-8.9c-11,0-19.7,2.4-26,7.3c-6.3,4.9-9.4,10.9-9.4,18
			c0,6.9,3.2,12.5,9.5,16.6c6.3,4.2,18.2,9.4,35.6,15.7c26.9,8,47.1,17.9,60.7,29.6c13.6,11.7,20.4,27.8,20.4,48.2
			c0,20.8-8.1,37.1-24.3,48.8c-16.2,11.8-37.7,17.6-64.4,17.6c-26.9,0-50.1-6.7-69.7-20.2C8,209.5-1.5,190.1-1,164.8l0.3-1h53.4
			c0,13.6,3.7,23.4,11,29.2c7.4,5.8,18.5,8.8,33.5,8.8c11.4,0,19.8-2.3,25.4-6.8C128.3,190.5,131.1,184.5,131.1,177.1z"/>
		<path class="st3" d="M553.9,158.8v81h-55.1V3.4h96c28,0,50.3,7.2,66.8,21.5c16.5,14.3,24.7,33.1,24.7,56.3
			c0,23.3-8.2,42-24.7,56.3c-16.5,14.2-38.7,21.4-66.8,21.4H553.9z M553.9,116.6h40.9c11.9,0,21-3.3,27.2-9.8
			c6.2-6.5,9.3-15,9.3-25.3c0-10.5-3.1-19.1-9.3-25.8c-6.2-6.7-15.3-10.1-27.2-10.1h-40.9V116.6z"/>
		<path class="st3" d="M891.5,138.6h-92.7v59h109.3v42.2H743.8V3.4h164.7v42.2H798.8v50.8h92.7V138.6z"/>
		<path class="st3" d="M1014.6,149.2v90.6h-55.1V3.4h90.9c27.4,0,49.1,6.3,65.1,19c16,12.7,24,30,24,52c0,12.2-3.2,22.7-9.7,31.5
			c-6.4,8.8-15.9,15.9-28.5,21.4c14.5,4.1,24.9,11,31.3,20.5c6.3,9.6,9.5,21.5,9.5,35.8v14.9c0,6.2,0.9,13.2,2.8,21.1
			c1.8,7.9,5,13.5,9.6,16.9v3.2h-56.5c-4.3-3.4-7.2-9.3-8.5-17.9c-1.4-8.6-2-16.5-2-23.7V184c0-11.3-3-19.9-8.9-25.8
			c-6-6-14.7-8.9-26.1-8.9H1014.6z M1014.6,107h36.2c11,0,19.5-2.5,25.3-7.6c5.8-5,8.8-12.3,8.8-21.7c0-9.6-3-17.4-9-23.3
			c-6-5.9-14.5-8.9-25.4-8.9h-35.9V107z"/>
	</g>
	<g>
		<path class="st5" d="M189.7,446.9l0.3,1c-1.1,27.7-9.3,48.9-24.6,63.5c-15.3,14.6-37.5,21.9-66.7,21.9c-29.2,0-53-9-71.3-27
			C9.1,488.3,0,465,0,436.3v-49.4c0-28.6,8.8-51.9,26.4-69.9C44,299,66.8,290,95,290c29.9,0,52.7,7.5,68.5,22.6
			c15.8,15.1,24.7,36.4,26.8,64.2l-0.3,1h-53.4c-0.8-15.4-4.2-26.8-10.3-34.3c-6.1-7.5-16.5-11.2-31.3-11.2c-12.5,0-22.3,5-29.4,15
			c-7.1,10-10.7,23.1-10.7,39.4v49.7c0,16.4,3.9,29.6,11.7,39.6C74.4,486,85.1,491,98.7,491c13.2,0,22.6-3.5,28.1-10.6
			c5.5-7,8.7-18.2,9.4-33.6H189.7z"/>
		<path class="st5" d="M441.4,432.9c0,29.1-9.2,53.1-27.7,72c-18.5,18.9-42.6,28.3-72.4,28.3c-30,0-54.3-9.4-72.9-28.3
			c-18.6-18.9-27.9-42.9-27.9-72v-42.6c0-29,9.3-53,27.9-71.9c18.6-18.9,42.8-28.4,72.7-28.4c29.7,0,53.8,9.5,72.4,28.4
			c18.6,18.9,27.9,42.9,27.9,71.9V432.9z M386.7,390c0-16.9-4-30.7-11.9-41.6c-8-10.8-19.2-16.2-33.7-16.2c-14.8,0-26.2,5.4-34,16.2
			c-7.9,10.8-11.8,24.7-11.8,41.7v42.9c0,17.1,4,31.1,11.9,41.9c8,10.8,19.4,16.2,34.2,16.2c14.4,0,25.6-5.4,33.5-16.2
			c7.9-10.8,11.9-24.8,11.9-41.9V390z"/>
		<path class="st5" d="M697.2,529.9h-54.7l-86.6-150.7l-1,0.3v150.4h-55.1V293.4h55.1l86.6,150.7l1-0.3V293.4h54.7V529.9z"/>
		<path class="st5" d="M886.5,467.2c0-8.3-2.8-14.8-8.3-19.3c-5.5-4.5-15.4-9.4-29.7-14.5c-29.9-9.4-52-19.5-66.4-30.3
			c-14.4-10.8-21.6-26.3-21.6-46.7c0-19.8,8.6-35.8,25.7-48.1c17.2-12.2,39-18.4,65.4-18.4c26.2,0,47.7,6.7,64.4,20.2
			c16.7,13.5,24.8,30.8,24.3,52.1l-0.3,1h-53.3c0-9.4-3.2-17.1-9.6-23c-6.4-5.9-15.2-8.9-26.5-8.9c-11,0-19.7,2.4-26,7.3
			c-6.3,4.9-9.4,10.9-9.4,18c0,6.9,3.2,12.5,9.5,16.6c6.3,4.2,18.2,9.4,35.6,15.7c26.9,8,47.1,17.9,60.7,29.6
			c13.6,11.7,20.4,27.8,20.4,48.2c0,20.8-8.1,37.1-24.3,48.8c-16.2,11.7-37.7,17.6-64.4,17.6c-26.9,0-50.1-6.7-69.7-20.2
			c-19.6-13.5-29.1-32.9-28.6-58.2l0.3-1h53.4c0,13.6,3.7,23.4,11,29.2c7.4,5.8,18.5,8.8,33.5,8.8c11.4,0,19.8-2.3,25.4-6.8
			C883.7,480.5,886.5,474.5,886.5,467.2z"/>
		<path class="st5" d="M1193.1,432.9c0,29.1-9.2,53.1-27.7,72c-18.5,18.9-42.6,28.3-72.4,28.3c-30,0-54.3-9.4-72.9-28.3
			c-18.6-18.9-27.9-42.9-27.9-72v-42.6c0-29,9.3-53,27.9-71.9c18.6-18.9,42.8-28.4,72.7-28.4c29.7,0,53.8,9.5,72.4,28.4
			c18.6,18.9,27.9,42.9,27.9,71.9V432.9z M1138.4,390c0-16.9-4-30.7-11.9-41.6c-8-10.8-19.2-16.2-33.7-16.2
			c-14.8,0-26.2,5.4-34,16.2c-7.9,10.8-11.8,24.7-11.8,41.7v42.9c0,17.1,4,31.1,11.9,41.9c8,10.8,19.4,16.2,34.2,16.2
			c14.4,0,25.6-5.4,33.5-16.2c7.9-10.8,11.9-24.8,11.9-41.9V390z"/>
		<path class="st5" d="M1306.6,487.6h101.8v42.2h-156.9V293.4h55.1V487.6z"/>
		<path class="st5" d="M1606.1,428.7h-92.7v59h109.3v42.2h-164.4V293.4H1623v42.2h-109.6v50.8h92.7V428.7z"/>
	</g>
	<g>
		<path class="st3" d="M441.7,2.4l-0.1,158.8c0,27.6-9.2,49.1-27.6,64.3c-18.4,15.2-42.4,22.8-72.2,22.8c-30.1,0-54.3-7.6-72.7-22.9
			c-18.4-15.2-27.6-36.6-27.6-64.3l0.1-158.8l56.4,0l-0.1,158.8c0,14.9,3.8,25.9,11.5,33.1c7.7,7.2,18.5,10.8,32.5,10.8
			c13.9,0,24.6-3.5,32.1-10.6c7.5-7.1,11.3-18.1,11.3-33.1l0.1-158.8L441.7,2.4z"/>
	</g>
	<g>
		<path class="st5" d="M1417,249.9c-46.2,0-83.8-37.6-83.8-83.8s37.6-83.8,83.8-83.8h76.9c46.2,0,83.8,37.6,83.8,83.8
			s-37.6,83.8-83.8,83.8H1417z"/>
		<g>
			<path class="st3" d="M1323.4,161.1c0-48.9,39.8-88.6,88.6-88.6h61c-5-38.8-38.1-68.7-78.2-68.7h-76.9
				c-43.6,0-78.9,35.3-78.9,78.9l0,0c0,43.6,35.3,78.9,78.9,78.9h5.5C1323.4,161.4,1323.4,161.3,1323.4,161.1z"/>
		</g>
	</g>
</g>
</svg>
